<?xml version="1.0" encoding="utf-8"?>
<!-- Generator: Adobe Illustrator 14.0.0, SVG Export Plug-In . SVG Version: 6.00 Build 43363)  -->
<!DOCTYPE svg PUBLIC "-//W3C//DTD SVG 1.1//EN" "http://www.w3.org/Graphics/SVG/1.1/DTD/svg11.dtd">
<svg version="1.1" id="Ebene_1" xmlns="http://www.w3.org/2000/svg" xmlns:xlink="http://www.w3.org/1999/xlink" x="0px" y="0px"
	 width="100px" height="100px" viewBox="0 0 100 100" enable-background="new 0 0 100 100" xml:space="preserve">
<rect x="39.333" y="39.5" width="20.334" height="20.334"/>
<polygon points="120,79.501 120,19.502 180,19.5 180,39.5 139.999,39.5 139.999,59.501 180,59.501 180,59.503 180,79.501 "/>
<polygon points="280.001,79.5 279.999,39.499 260,39.499 260,79.5 240,79.5 240,19.5 299.998,19.5 299.998,79.498 300.001,79.5 "/>
<path d="M341.002,90h20c0.006-16.602,6.701-31.538,17.574-42.427C389.464,36.701,404.4,30.006,421.002,30V10
	C376.814,10.006,341.008,45.813,341.002,90z M381.001,90H401c0.021-11.042,8.96-19.98,20.002-20.002V49.999
	C398.904,50.005,381.007,67.902,381.001,90z"/>
<path d="M20.25,178.999v0.002V178.999L20.25,178.999z M20.25,178.999v-19.998l39.999-0.002v-20.001L20.25,139v-20h60v60
	L20.25,178.999L20.25,178.999z"/>
<path d="M100,179h100v-19.999H100V179z M199.998,119L100,119.002V139h100L199.998,119z"/>
<path d="M220,119v20c16.6,0.006,31.536,6.701,42.425,17.574c10.875,10.888,17.567,25.824,17.574,42.426h20.002
	C299.992,154.813,264.186,119.006,220,119z M220,158.999v19.999c11.04,0.021,19.979,8.96,20,20.002h20
	C259.993,176.902,242.096,159.005,220,158.999z"/>
<path d="M421.001,120v-20c-18.927,0.003-36.305,6.588-50,17.573c-13.696-10.985-31.074-17.571-50-17.573v20
	c13.538,0.005,25.967,4.461,35.999,12.001c-4.042,5.382-7.411,11.295-10.007,17.608c-6.991-5.984-16.063-9.607-25.992-9.61v19.999
	c11.04,0.021,19.979,8.96,20,20.002h20c0.005-12.29,3.683-23.663,10-33.162c6.318,9.499,9.995,20.872,10,33.162h20.002
	c0-0.014-0.001-0.025-0.001-0.038c0.042-11.024,8.972-19.942,20-19.964v-19.999c-9.929,0.003-19.002,3.626-25.993,9.61
	c-2.596-6.313-5.965-12.228-10.007-17.608C395.032,124.461,407.462,120.005,421.001,120z"/>
<polygon points="19.5,278.5 19.501,218.498 39.501,218.498 39.501,258.5 59.499,258.5 59.499,218.498 59.501,218.498 
	79.501,218.498 79.501,278.5 "/>
<path d="M140,218.498h-20c0.006,44.186,35.813,79.992,80,79.998v-19.999c-16.602-0.007-31.538-6.699-42.427-17.574
	C146.701,250.034,140.006,235.098,140,218.498z M179.998,218.498h-19.999c0.006,22.095,17.903,39.993,40.001,40v-20
	C188.958,238.477,180.02,229.538,179.998,218.498z"/>
<path d="M280.001,218.498V318.5H300V218.498H280.001z M240.002,318.5h20V218.498h-20V318.5z"/>
<path d="M419.505,239.493c-11.042-0.021-19.98-8.959-20.002-20h-19.999c0.003,9.928,3.626,19.001,9.61,25.992
	c-6.313,2.596-12.228,5.964-17.608,10.007c-7.54-10.032-11.996-22.461-12.001-35.999h-20c0.003,18.926,6.588,36.303,17.573,49.999
	c-10.985,13.696-17.571,31.074-17.573,50.001h20c0.005-13.539,4.461-25.969,12.001-36.001c5.382,4.043,11.296,7.411,17.608,10.007
	c-5.984,6.991-9.607,16.064-9.61,25.994h19.999c0.021-11.042,8.96-19.98,20.002-20.002v-19.999c-12.29-0.005-23.663-3.683-33.162-10
	c9.499-6.316,20.872-9.995,33.162-10V239.493z"/>
<path d="M59.333,338.497c-0.005,16.602-6.699,31.538-17.572,42.428c-10.89,10.873-25.827,17.567-42.428,17.572v20.002
	c44.188-0.008,79.994-35.813,80-80.002H59.333z M39.334,338.498h-20c-0.021,11.04-8.96,19.979-20,20v20
	C21.428,378.491,39.327,360.592,39.334,338.498z"/>
<path d="M163.999,386.497c4.044-5.382,7.412-11.296,10.008-17.61c6.991,5.984,16.063,9.608,25.992,9.612l0.002-20h-0.002
	c-11.042-0.021-19.979-8.96-19.999-20.002h-20.001c-0.004,12.291-3.683,23.664-10,33.164c-6.317-9.499-9.996-20.873-9.999-33.164
	h-20l0,0l0,0c-0.021,11.04-8.96,19.979-20,20v20c9.928-0.003,19.002-3.626,25.993-9.612c2.595,6.315,5.964,12.229,10.007,17.612
	c-10.032,7.54-22.463,11.996-36.001,12v20.002c18.927-0.003,36.304-6.589,50-17.573c13.696,10.983,31.073,17.569,50,17.572l0.002-20
	h-0.002C186.462,398.493,174.032,394.037,163.999,386.497z"/>
<path d="M279.999,438.498h20.002c-0.004-18.927-6.59-36.305-17.574-50c10.984-13.697,17.569-31.074,17.572-50.001h-20
	c-0.004,13.538-4.46,25.969-12,36.001c-5.382-4.043-11.296-7.412-17.61-10.008c5.984-6.991,9.608-16.065,9.611-25.992h-20
	c-0.021,11.04-8.96,19.979-20,20v20l0,0l0,0c12.29,0.005,23.662,3.684,33.161,10.001c-9.499,6.317-20.872,9.995-33.162,9.999V418.5
	c0.013,0,0.024-0.001,0.038-0.001c11.023,0.042,19.941,8.972,19.962,20h20c-0.003-9.928-3.626-19.002-9.61-25.993
	c6.314-2.596,12.229-5.964,17.609-10.007C275.539,412.529,279.993,424.959,279.999,438.498z"/>
<path d="M421.002,358.498c-11.038-0.021-19.973-8.953-20.001-19.986c0-0.005,0-0.01,0-0.014h-20
	c-0.004,12.29-3.681,23.663-9.999,33.162c-6.316-9.5-9.996-20.872-10-33.162l0,0l0,0h-20c-0.021,11.04-8.96,19.979-20,20v20l0,0l0,0
	c12.29,0.005,23.662,3.684,33.161,10.001c-9.499,6.317-20.872,9.995-33.162,9.999V418.5c0.013,0,0.024-0.001,0.038-0.001
	c11.023,0.042,19.941,8.972,19.962,20h20c0.005-12.29,3.683-23.663,10-33.162c6.317,9.499,9.995,20.872,10,33.162h20.002
	c0-0.013-0.001-0.024-0.001-0.038c0.042-11.023,8.971-19.941,20-19.964v-20c-12.29-0.005-23.663-3.683-33.162-10
	c9.499-6.317,20.872-9.995,33.162-10V358.498z"/>
</svg>
